<svg xmlns="http://www.w3.org/2000/svg" xmlns:xlink="http://www.w3.org/1999/xlink" viewBox="0 0 375 245"><defs><style>.cls-1{fill:#fff;}.cls-16,.cls-2,.cls-3{fill:#3c3c41;}.cls-2{opacity:0.05;}.cls-2,.cls-3{isolation:isolate;}.cls-3{opacity:0.18;}.cls-4{fill:#6ebcdb;}.cls-5{fill:#5db4d7;}.cls-6{fill:#e6e6e6;}.cls-7{fill:#86d633;}.cls-8{fill:url(#Degradado_sin_nombre);}.cls-9{fill:#003067;}.cls-10{fill:#50e6ff;}.cls-11{fill:url(#Degradado_sin_nombre_2);}.cls-12{fill:url(#Degradado_sin_nombre_3);}.cls-13,.cls-14,.cls-15,.cls-17,.cls-18,.cls-19,.cls-20{fill:none;stroke:#3c3c41;stroke-linecap:round;stroke-miterlimit:10;}.cls-14{stroke-dasharray:0.96 2.88 3.84 2.88;}.cls-15{stroke-dasharray:3.84 2.88 0.96 2.88 3.84 2.88;}.cls-17{stroke-dasharray:0.95 2.86 3.81 2.86;}.cls-18{stroke-dasharray:3.81 2.86 0.95 2.86 3.81 2.86;}.cls-19{stroke-dasharray:0.86 2.58 3.44 2.58;}.cls-20{stroke-dasharray:3.44 2.58 0.86 2.58 3.44 2.58;}.cls-21{fill:url(#Degradado_sin_nombre_4);}.cls-22{fill:#b4ec36;}.cls-23{fill:#5ea0ef;}.cls-24{fill:#1e1e1e;}</style><linearGradient id="Degradado_sin_nombre" x1="240.52" y1="344.72" x2="240.52" y2="376.72" gradientTransform="translate(0 -298)" gradientUnits="userSpaceOnUse"><stop offset="0" stop-color="#b3b2b3"/><stop offset="0.38" stop-color="#afaeaf"/><stop offset="0.76" stop-color="#a2a2a2"/><stop offset="1" stop-color="#979797"/></linearGradient><linearGradient id="Degradado_sin_nombre_2" x1="240.52" y1="423.22" x2="240.52" y2="455.22" xlink:href="#Degradado_sin_nombre"/><linearGradient id="Degradado_sin_nombre_3" x1="240.52" y1="503.4" x2="240.52" y2="535.4" xlink:href="#Degradado_sin_nombre"/><linearGradient id="Degradado_sin_nombre_4" x1="144.48" y1="457.63" x2="144.48" y2="422.85" gradientTransform="translate(0 -298)" gradientUnits="userSpaceOnUse"><stop offset="0" stop-color="#5e9624"/><stop offset="0.02" stop-color="#5f9724"/><stop offset="1" stop-color="#76bc2d"/></linearGradient></defs><title>OJ105690781</title><g id="bg"><rect class="cls-1" y="35" width="375" height="210"/><rect class="cls-2" y="35" width="375" height="210"/><rect class="cls-1" width="375" height="35"/><rect class="cls-3" width="375" height="35"/></g><g id="shapes"><g id="ad94e297-0e86-4eaf-aac0-d146ee9aea65"><path class="cls-4" d="M120.79,24.14l-3.63-3.75a1.77,1.77,0,0,1-.6.11,1.88,1.88,0,1,1,0-3.76,1.86,1.86,0,0,1,1.76,1.18h3.58v1.26h-3.52c-.06.15-.13.29-.2.44l3.34,3.45,1.82-2.76V11.65H120.9L124,8.53l3,3.12h-2.44v6.77l4.59-7-4.63-4.63a.8.8,0,0,0-1.13,0h0L112.18,18a.8.8,0,0,0,0,1.13h0l11.21,11.21-4-4Z"/><path class="cls-5" d="M123.31,24.3v-4l-1.82,2.77,1.34,1.43A1.2,1.2,0,0,1,123.31,24.3Z"/><path class="cls-5" d="M135.71,18l-6.56-6.57-4.59,7v5.89a1.27,1.27,0,0,1,.41.23l4.82-4.87a2.23,2.23,0,0,1-.24-.49h-3.61V17.92h3.66a1.87,1.87,0,1,1,1.74,2.58,3,3,0,0,1-.52-.08l-5.12,5.16a2.67,2.67,0,0,1,.08.48,1.88,1.88,0,0,1-3.76.15,1.83,1.83,0,0,1,.1-.7l-1.33-1.33-1.43,2.13,4,4a.79.79,0,0,0,1.12,0h0l11.21-11.2a.79.79,0,0,0,0-1.12h0Z"/><path class="cls-6" d="M129.6,17.92h-3.66v1.26h3.61a1.77,1.77,0,0,1-.09-.56A1.86,1.86,0,0,1,129.6,17.92Z"/><path class="cls-6" d="M118.35,19.18h3.52V17.92h-3.58a1.69,1.69,0,0,1,.15.7A1.77,1.77,0,0,1,118.35,19.18Z"/><path class="cls-6" d="M125.7,25.58l5.12-5.16a2,2,0,0,1-1-.75L125,24.54A1.74,1.74,0,0,1,125.7,25.58Z"/><path class="cls-6" d="M122.87,24.5l-1.34-1.43-3.38-3.45a2,2,0,0,1-1,.77l3.63,3.75,1.33,1.33A1.79,1.79,0,0,1,122.87,24.5Z"/><path class="cls-1" d="M127,11.65l-3-3.12-3.08,3.12h2.44V24.3a1.35,1.35,0,0,0-.44.2,1.88,1.88,0,0,0-.51,2.6,1.93,1.93,0,0,0,1,.74,1.87,1.87,0,0,0,2.33-1.25,2.34,2.34,0,0,0,.08-.53,2.67,2.67,0,0,0-.08-.48,1.72,1.72,0,0,0-.73-1,1.27,1.27,0,0,0-.41-.23V11.65ZM124,27.1a1,1,0,1,1,1-1h0A1,1,0,0,1,124,27.1Z"/><path class="cls-1" d="M118.15,19.62c.07-.15.14-.29.2-.44a1.77,1.77,0,0,0,.09-.56,1.69,1.69,0,0,0-.15-.7,1.87,1.87,0,1,0-1.73,2.58,1.77,1.77,0,0,0,.6-.11A1.94,1.94,0,0,0,118.15,19.62Zm-1.59,0a1,1,0,1,1,1-1h0a1.05,1.05,0,0,1-1,1.08h0Z"/><path class="cls-1" d="M130.82,20.42a3,3,0,0,0,.52.08,1.87,1.87,0,1,0-1.88-1.88,1.77,1.77,0,0,0,.09.56,2.23,2.23,0,0,0,.24.49A2,2,0,0,0,130.82,20.42Zm.52-2.83a1,1,0,0,1,.92,1.08s0,0,0,.07a1,1,0,0,1-2.06,0A1,1,0,0,1,131,17.6h.07a1,1,0,0,1,.24,0Z"/><path class="cls-7" d="M124,25a1,1,0,0,0,0,2.08,1,1,0,0,0,1-1h0a1,1,0,0,0-.92-1.08Z"/><circle class="cls-7" cx="116.56" cy="18.62" r="1.04"/><path class="cls-7" d="M131.34,19.66a1,1,0,0,0,0-2.08,1,1,0,0,0-1,1h0a1,1,0,0,0,.92,1.08Z"/></g><path class="cls-8" d="M250.91,77.63a1.16,1.16,0,0,1-1.2,1.09H231.33a1.16,1.16,0,0,1-1.2-1.09V47.81a1.16,1.16,0,0,1,1.2-1.09h18.38a1.16,1.16,0,0,1,1.2,1.09Z"/><path class="cls-9" d="M233.19,60.4a2.39,2.39,0,0,1,2.22-2.5h10.38A2.37,2.37,0,0,1,248,60.4h0a2.37,2.37,0,0,1-2.12,2.6H235.45a2.39,2.39,0,0,1-2.22-2.49Z"/><path class="cls-9" d="M233.19,53a2.38,2.38,0,0,1,2.22-2.49h10.38A2.38,2.38,0,0,1,248,53h0a2.4,2.4,0,0,1-2.21,2.5H235.45a2.4,2.4,0,0,1-2.22-2.5Z"/><circle class="cls-10" cx="236.1" cy="53" r="1.66"/><circle class="cls-10" cx="236.1" cy="60.4" r="1.66"/><path class="cls-11" d="M250.91,156.13a1.16,1.16,0,0,1-1.2,1.09H231.33a1.16,1.16,0,0,1-1.2-1.09V126.31a1.16,1.16,0,0,1,1.2-1.09h18.38a1.16,1.16,0,0,1,1.2,1.09Z"/><path class="cls-9" d="M233.19,138.9a2.39,2.39,0,0,1,2.22-2.5h10.38a2.37,2.37,0,0,1,2.21,2.5h0a2.37,2.37,0,0,1-2.13,2.59H235.45a2.39,2.39,0,0,1-2.22-2.49Z"/><path class="cls-9" d="M233.19,131.5a2.38,2.38,0,0,1,2.22-2.49h10.38A2.38,2.38,0,0,1,248,131.5h0a2.4,2.4,0,0,1-2.21,2.5H235.45a2.4,2.4,0,0,1-2.22-2.5Z"/><circle class="cls-10" cx="236.1" cy="131.5" r="1.66"/><circle class="cls-10" cx="236.1" cy="138.9" r="1.66"/><path class="cls-12" d="M250.91,236.31a1.16,1.16,0,0,1-1.2,1.09H231.33a1.16,1.16,0,0,1-1.2-1.09V206.48a1.15,1.15,0,0,1,1.2-1.08h18.38a1.15,1.15,0,0,1,1.2,1.08Z"/><path class="cls-9" d="M233.19,219.08a2.4,2.4,0,0,1,2.22-2.51h10.38a2.4,2.4,0,0,1,2.21,2.51h0a2.38,2.38,0,0,1-2.13,2.59H235.45a2.38,2.38,0,0,1-2.22-2.48Z"/><path class="cls-9" d="M233.19,211.67a2.38,2.38,0,0,1,2.22-2.48h10.38a2.36,2.36,0,0,1,2.21,2.48h0a2.4,2.4,0,0,1-2.21,2.51H235.45a2.4,2.4,0,0,1-2.22-2.51Z"/><circle class="cls-10" cx="236.1" cy="211.67" r="1.66"/><circle class="cls-10" cx="236.1" cy="219.08" r="1.66"/><line class="cls-13" x1="144.27" y1="160.45" x2="144.27" y2="158.45"/><line class="cls-14" x1="144.27" y1="155.57" x2="144.27" y2="146.44"/><path class="cls-15" d="M144.27,145V66.89a5,5,0,0,1,5-5h68.28"/><line class="cls-13" x1="218.99" y1="61.89" x2="220.99" y2="61.89"/><polygon class="cls-16" points="219.9 65.63 226.37 61.89 219.9 58.15 219.9 65.63"/><line class="cls-13" x1="143.77" y1="193.29" x2="143.77" y2="195.29"/><line class="cls-17" x1="143.77" y1="198.14" x2="143.77" y2="207.19"/><path class="cls-18" d="M143.77,208.62v7.62a5,5,0,0,0,5,5h68.79"/><line class="cls-13" x1="218.99" y1="221.24" x2="220.99" y2="221.24"/><polygon class="cls-16" points="219.9 224.98 226.37 221.24 219.9 217.5 219.9 224.98"/><line class="cls-13" x1="158.46" y1="142.11" x2="160.46" y2="142.11"/><line class="cls-19" x1="163.04" y1="142.11" x2="171.22" y2="142.11"/><line class="cls-20" x1="172.51" y1="142.11" x2="217.7" y2="142.11"/><line class="cls-13" x1="218.99" y1="142.11" x2="220.99" y2="142.11"/><polygon class="cls-16" points="219.9 145.85 226.37 142.11 219.9 138.37 219.9 145.85"/><path class="cls-21" d="M129.77,140.83l14-14a1,1,0,0,1,1.41,0h0l14,14a1,1,0,0,1,0,1.41h0l-14,14a1,1,0,0,1-1.4,0l-14-14a1,1,0,0,1,0-1.41Z"/><path class="cls-22" d="M148.13,133.22l-3.53-3.52a.2.2,0,0,0-.27,0l-3.53,3.52a.16.16,0,0,0,0,.21l0,0a.16.16,0,0,0,.17.07h2a.18.18,0,0,1,.18.18V137a.21.21,0,0,0,.19.19h2.2a.19.19,0,0,0,.18-.19v-3.3a.18.18,0,0,1,.18-.18H148a.17.17,0,0,0,.2-.13A.14.14,0,0,0,148.13,133.22Z"/><path class="cls-22" d="M136.13,137.57l-3.49,3.54a.17.17,0,0,0,0,.24h0l3.49,3.52a.19.19,0,0,0,.26,0,.2.2,0,0,0,.06-.14v-2a.19.19,0,0,1,.18-.19H140a.16.16,0,0,0,.16-.16h0v-2.22a.16.16,0,0,0,0-.23h-3.4a.17.17,0,0,1-.18-.15v-2a.2.2,0,0,0-.37-.13Z"/><path class="cls-22" d="M152.93,144.88l3.55-3.53a.18.18,0,0,0,0-.25l-3.55-3.53a.18.18,0,0,0-.25,0h0a.21.21,0,0,0,0,.11v2.08a.17.17,0,0,1-.16.17h-3.35a.16.16,0,0,0-.17.15h0v2.22a.17.17,0,0,0,.15.18h3.35a.19.19,0,0,1,.18.19v2.06a.18.18,0,0,0,.2.16h0Z"/><path class="cls-1" d="M149.12,141.55a4.65,4.65,0,1,0-5.9,4.45v1.58a2.86,2.86,0,1,0,2.61,0v-1.67A4.63,4.63,0,0,0,149.12,141.55Z"/><circle id="e99c3387-15c3-4f28-bd4b-cb209b430e06" class="cls-23" cx="144.48" cy="141.53" r="2.7"/></g><g id="txt"><path class="cls-24" d="M121.22,172.94h-2.06l-.6-1.87h-3l-.6,1.87h-2l3.06-8.41h2.25Zm-3.09-3.33-.9-2.82a3,3,0,0,1-.14-.76h0a3.24,3.24,0,0,1-.15.74l-.91,2.84Z"/><path class="cls-24" d="M126.84,172.94h-5.38v-.77l3-3.87h-2.71v-1.36h5.06v.91L124,171.57h2.87Z"/><path class="cls-24" d="M133.54,172.94h-1.85V172h0a2.09,2.09,0,0,1-1.84,1.06c-1.39,0-2.08-.84-2.08-2.52v-3.62h1.84v3.45c0,.85.34,1.27,1,1.27a1,1,0,0,0,.8-.34,1.42,1.42,0,0,0,.29-.95v-3.43h1.85Z"/><path class="cls-24" d="M139,168.61a1.5,1.5,0,0,0-.78-.19,1.12,1.12,0,0,0-.94.45,1.88,1.88,0,0,0-.34,1.2v2.87H135.1v-6H137v1.11h0a1.61,1.61,0,0,1,1.59-1.22,1.12,1.12,0,0,1,.45.07Z"/><path class="cls-24" d="M145.22,170.46H141.3c.07.87.62,1.31,1.65,1.31a3.24,3.24,0,0,0,1.74-.47v1.34a4.63,4.63,0,0,1-2.16.44,2.78,2.78,0,0,1-3.06-3.05,3.2,3.2,0,0,1,.87-2.37,2.9,2.9,0,0,1,2.13-.87,2.62,2.62,0,0,1,2,.78,3,3,0,0,1,.72,2.11Zm-1.72-1.13c0-.86-.35-1.29-1-1.29a1,1,0,0,0-.77.37,1.65,1.65,0,0,0-.4.92Z"/><path class="cls-24" d="M154.82,172.94h-5v-8.41h1.89v6.87h3.12Z"/><path class="cls-24" d="M158.62,173.08a3.2,3.2,0,0,1-2.35-.84,3.47,3.47,0,0,1,0-4.61,3.35,3.35,0,0,1,2.41-.84,3.19,3.19,0,0,1,2.34.84,3,3,0,0,1,.85,2.22,3.13,3.13,0,0,1-.88,2.36A3.24,3.24,0,0,1,158.62,173.08Zm0-4.87a1.23,1.23,0,0,0-1,.45,2,2,0,0,0-.36,1.28c0,1.15.46,1.72,1.39,1.72s1.33-.59,1.33-1.77S159.57,168.21,158.67,168.21Z"/><path class="cls-24" d="M168,172.94h-1.76v-.87h0a1.94,1.94,0,0,1-1.79,1,1.85,1.85,0,0,1-1.37-.49,1.79,1.79,0,0,1-.5-1.32c0-1.17.69-1.84,2.07-2l1.63-.22c0-.65-.36-1-1.07-1a3.59,3.59,0,0,0-2,.64v-1.4a4.67,4.67,0,0,1,1.06-.35,5.63,5.63,0,0,1,1.22-.15,2.27,2.27,0,0,1,2.57,2.56Zm-1.74-2.44v-.41l-1.09.14c-.61.08-.91.35-.91.82a.71.71,0,0,0,.22.52.89.89,0,0,0,.6.2,1.1,1.1,0,0,0,.85-.36A1.29,1.29,0,0,0,166.24,170.5Z"/><path class="cls-24" d="M175.31,172.94h-1.85v-.83h0a2.07,2.07,0,0,1-1.86,1,2.27,2.27,0,0,1-1.81-.79,3.28,3.28,0,0,1-.69-2.22,3.58,3.58,0,0,1,.76-2.38,2.45,2.45,0,0,1,2-.9,1.7,1.7,0,0,1,1.62.83h0v-3.57h1.85ZM173.5,170v-.45a1.48,1.48,0,0,0-.34-1,1.16,1.16,0,0,0-.89-.38,1.12,1.12,0,0,0-1,.48A2.26,2.26,0,0,0,171,170a2,2,0,0,0,.34,1.22,1.19,1.19,0,0,0,1.84,0A1.86,1.86,0,0,0,173.5,170Z"/><path class="cls-24" d="M121.29,186.14v-8.41h3.06a3.83,3.83,0,0,1,2.16.52,1.64,1.64,0,0,1,.76,1.45,1.74,1.74,0,0,1-.46,1.19,2.41,2.41,0,0,1-1.18.71v0a2.37,2.37,0,0,1,1.44.67,1.86,1.86,0,0,1,.53,1.34,2.24,2.24,0,0,1-.82,1.83,3.48,3.48,0,0,1-2.26.68Zm1.89-7v2H124a1.39,1.39,0,0,0,.92-.28,1,1,0,0,0,.34-.79c0-.61-.47-.92-1.39-.92Zm0,3.4v2.21h1a1.6,1.6,0,0,0,1-.3,1,1,0,0,0,.37-.84.94.94,0,0,0-.37-.79,1.61,1.61,0,0,0-1-.28Z"/><path class="cls-24" d="M133.8,186.14H132v-.87h0a1.94,1.94,0,0,1-1.79,1,1.85,1.85,0,0,1-1.37-.49,1.75,1.75,0,0,1-.5-1.32c0-1.17.69-1.84,2.07-2l1.63-.22c0-.65-.36-1-1.07-1a3.59,3.59,0,0,0-2,.64v-1.4a4.67,4.67,0,0,1,1.06-.35,5.56,5.56,0,0,1,1.22-.15,2.27,2.27,0,0,1,2.57,2.56Zm-1.74-2.44v-.41l-1.09.14c-.61.08-.91.35-.91.82a.71.71,0,0,0,.22.52.89.89,0,0,0,.6.2,1.1,1.1,0,0,0,.85-.36A1.29,1.29,0,0,0,132.06,183.7Z"/><path class="cls-24" d="M137.11,186.14h-1.85v-8.89h1.85Z"/><path class="cls-24" d="M143.66,186.14h-1.75v-.87h0a2,2,0,0,1-1.79,1,1.85,1.85,0,0,1-1.37-.49,1.75,1.75,0,0,1-.5-1.32c0-1.17.68-1.84,2.06-2l1.63-.22c0-.65-.35-1-1.06-1a3.59,3.59,0,0,0-2,.64v-1.4a4.57,4.57,0,0,1,1.05-.35,5.71,5.71,0,0,1,1.23-.15,2.26,2.26,0,0,1,2.56,2.56Zm-1.74-2.44v-.41l-1.09.14c-.6.08-.9.35-.9.82a.67.67,0,0,0,.22.52.86.86,0,0,0,.59.2,1.08,1.08,0,0,0,.85-.36A1.29,1.29,0,0,0,141.92,183.7Z"/><path class="cls-24" d="M150.92,186.14h-1.84V182.8c0-.93-.34-1.39-1-1.39a1,1,0,0,0-.79.37,1.36,1.36,0,0,0-.31.93v3.43h-1.85v-6H147v.94h0a2.12,2.12,0,0,1,1.93-1.09c1.33,0,2,.82,2,2.47Z"/><path class="cls-24" d="M156.93,185.92a3.66,3.66,0,0,1-1.81.36,3,3,0,0,1-2.23-.84,2.83,2.83,0,0,1-.86-2.16,3.19,3.19,0,0,1,.92-2.41,3.38,3.38,0,0,1,2.45-.88,3.07,3.07,0,0,1,1.53.28v1.57a2.07,2.07,0,0,0-1.29-.43,1.7,1.7,0,0,0-1.26.46,1.75,1.75,0,0,0-.47,1.29,1.69,1.69,0,0,0,.45,1.25,1.62,1.62,0,0,0,1.22.45,2.42,2.42,0,0,0,1.35-.43Z"/><path class="cls-24" d="M163.54,183.66h-3.92c.07.87.61,1.31,1.65,1.31a3.24,3.24,0,0,0,1.74-.47v1.34a4.66,4.66,0,0,1-2.16.44,2.78,2.78,0,0,1-3.06-3.05,3.2,3.2,0,0,1,.87-2.37,2.88,2.88,0,0,1,2.13-.87,2.63,2.63,0,0,1,2,.78,3,3,0,0,1,.72,2.11Zm-1.72-1.13c0-.86-.35-1.29-1-1.29a1,1,0,0,0-.77.37,1.65,1.65,0,0,0-.4.92Z"/><path class="cls-24" d="M168.55,181.81a1.5,1.5,0,0,0-.78-.19,1.12,1.12,0,0,0-.94.45,1.88,1.88,0,0,0-.34,1.2v2.87h-1.85v-6h1.85v1.11h0A1.61,1.61,0,0,1,168.1,180a1.12,1.12,0,0,1,.45.07Z"/><path class="cls-24" d="M149.63,21.86h-2.17l-1.31-2.16c-.1-.16-.19-.31-.28-.44a2.39,2.39,0,0,0-.27-.33,1.32,1.32,0,0,0-.29-.21.72.72,0,0,0-.33-.07h-.51v3.21h-1.89v-8.4h3c2,0,3.06.76,3.06,2.29a2.37,2.37,0,0,1-.13.81,2.14,2.14,0,0,1-.39.67,2.48,2.48,0,0,1-.59.52,3.47,3.47,0,0,1-.78.34v0a1.18,1.18,0,0,1,.37.19,3.18,3.18,0,0,1,.34.31,3.79,3.79,0,0,1,.31.37c.1.14.19.27.27.4Zm-5.16-7v2.34h.82a1.37,1.37,0,0,0,1-.35,1.19,1.19,0,0,0,.38-.89c0-.73-.44-1.1-1.32-1.1Z"/><path class="cls-24" d="M155.33,19.39h-3.92c.06.87.61,1.31,1.65,1.31a3.24,3.24,0,0,0,1.74-.47v1.34a4.68,4.68,0,0,1-2.16.44,3.09,3.09,0,0,1-2.26-.8,3.08,3.08,0,0,1-.8-2.25,3.24,3.24,0,0,1,.86-2.37,2.9,2.9,0,0,1,2.14-.87,2.63,2.63,0,0,1,2,.78,3,3,0,0,1,.72,2.11Zm-1.72-1.13c0-.86-.35-1.29-1-1.29a1,1,0,0,0-.77.37,1.65,1.65,0,0,0-.4.92Z"/><path class="cls-24" d="M162.31,21.18a3.4,3.4,0,0,1-1,2.59,3.9,3.9,0,0,1-2.8.91,4.43,4.43,0,0,1-1.92-.34V22.78a3.68,3.68,0,0,0,1.87.54,2,2,0,0,0,1.45-.5,1.76,1.76,0,0,0,.52-1.34V21h0a2.07,2.07,0,0,1-1.87,1,2.26,2.26,0,0,1-1.83-.81,3.27,3.27,0,0,1-.67-2.17,3.67,3.67,0,0,1,.75-2.42,2.47,2.47,0,0,1,2-.89,1.85,1.85,0,0,1,1.65.84h0v-.7h1.85ZM160.48,19v-.47a1.48,1.48,0,0,0-.33-1,1.1,1.1,0,0,0-.88-.4,1.15,1.15,0,0,0-1,.48A2.28,2.28,0,0,0,158,19a1.93,1.93,0,0,0,.33,1.19,1.1,1.1,0,0,0,.92.43,1.13,1.13,0,0,0,.93-.44A1.83,1.83,0,0,0,160.48,19Z"/><path class="cls-24" d="M165.71,21.86h-1.85V13h1.85Z"/><path class="cls-24" d="M172.26,21.86h-1.75V21h0a1.93,1.93,0,0,1-1.78,1,1.88,1.88,0,0,1-1.38-.49,1.8,1.8,0,0,1-.5-1.33q0-1.74,2.07-2l1.63-.22c0-.65-.36-1-1.07-1a3.64,3.64,0,0,0-2,.64v-1.4a4.67,4.67,0,0,1,1.06-.35,5.7,5.7,0,0,1,1.22-.15,2.27,2.27,0,0,1,2.57,2.56Zm-1.74-2.43V19l-1.09.14c-.6.08-.9.35-.9.82a.67.67,0,0,0,.22.52.84.84,0,0,0,.59.2,1.1,1.1,0,0,0,.85-.36A1.31,1.31,0,0,0,170.52,19.43Z"/><path class="cls-24" d="M184.77,21.86h-1.91l-3.46-5.27c-.2-.31-.34-.55-.42-.7h0c0,.3,0,.75,0,1.36v4.61h-1.78v-8.4h2l3.33,5.12c.15.23.29.46.42.68h0a9.61,9.61,0,0,1,0-1.15V13.46h1.78Z"/><path class="cls-24" d="M194.09,21.86H192L191.43,20h-3l-.59,1.86h-2.06l3.06-8.4h2.25ZM191,18.54l-.9-2.82A3.57,3.57,0,0,1,190,15h0a3.62,3.62,0,0,1-.14.73l-.92,2.85Z"/><path class="cls-24" d="M200.2,15h-2.4v6.86h-1.9V15h-2.38V13.46h6.68Z"/><path class="cls-24" d="M210.33,21.86h-1.85V21h0a2.06,2.06,0,0,1-1.85,1,2.26,2.26,0,0,1-1.81-.79A3.28,3.28,0,0,1,204.1,19a3.57,3.57,0,0,1,.76-2.39,2.47,2.47,0,0,1,2-.89,1.68,1.68,0,0,1,1.61.83h0V13h1.85ZM208.51,19V18.5a1.41,1.41,0,0,0-.34-1,1.13,1.13,0,0,0-.88-.38,1.12,1.12,0,0,0-1,.48A2.24,2.24,0,0,0,206,19a2,2,0,0,0,.33,1.22,1.14,1.14,0,0,0,.93.42,1.12,1.12,0,0,0,.92-.45A1.91,1.91,0,0,0,208.51,19Z"/><path class="cls-24" d="M217.28,19.39h-3.92c.07.87.61,1.31,1.65,1.31a3.24,3.24,0,0,0,1.74-.47v1.34a4.66,4.66,0,0,1-2.16.44,3.09,3.09,0,0,1-2.26-.8,3.08,3.08,0,0,1-.8-2.25,3.2,3.2,0,0,1,.87-2.37,2.88,2.88,0,0,1,2.13-.87,2.63,2.63,0,0,1,2,.78,3,3,0,0,1,.72,2.11Zm-1.72-1.13c0-.86-.35-1.29-1-1.29a1,1,0,0,0-.77.37,1.65,1.65,0,0,0-.4.92Z"/><path class="cls-24" d="M227.08,19.39h-3.91c.06.87.61,1.31,1.64,1.31a3.24,3.24,0,0,0,1.74-.47v1.34a4.63,4.63,0,0,1-2.16.44,3.09,3.09,0,0,1-2.26-.8,3.08,3.08,0,0,1-.8-2.25,3.2,3.2,0,0,1,.87-2.37,2.9,2.9,0,0,1,2.13-.87,2.62,2.62,0,0,1,2,.78,3,3,0,0,1,.72,2.11Zm-1.72-1.13c0-.86-.34-1.29-1-1.29a1,1,0,0,0-.77.37,1.65,1.65,0,0,0-.4.92Z"/><path class="cls-24" d="M234,21.86h-1.85V18.53c0-.93-.33-1.39-1-1.39a1,1,0,0,0-.79.37,1.41,1.41,0,0,0-.31.93v3.42h-1.85v-6H230v.95h0A2.11,2.11,0,0,1,232,15.72c1.33,0,2,.82,2,2.47Z"/><path class="cls-24" d="M239.07,21.79a2.7,2.7,0,0,1-1.24.22c-1.3,0-2-.68-2-2V17.23h-1V15.86h1V14.57l1.84-.53v1.82h1.35v1.37h-1.35v2.43c0,.62.25.93.74.93a1.2,1.2,0,0,0,.61-.17Z"/><path class="cls-24" d="M244,17.53a1.66,1.66,0,0,0-.78-.18,1.12,1.12,0,0,0-.95.45A1.94,1.94,0,0,0,242,19v2.86h-1.85v-6H242V17h0a1.6,1.6,0,0,1,1.58-1.22,1.17,1.17,0,0,1,.46.07Z"/><path class="cls-24" d="M249.88,21.86h-1.75V21h0a1.93,1.93,0,0,1-1.78,1,1.88,1.88,0,0,1-1.38-.49,1.8,1.8,0,0,1-.5-1.33q0-1.74,2.07-2l1.63-.22c0-.65-.36-1-1.07-1a3.64,3.64,0,0,0-2,.64v-1.4a4.67,4.67,0,0,1,1.06-.35,5.7,5.7,0,0,1,1.22-.15,2.27,2.27,0,0,1,2.57,2.56Zm-1.74-2.43V19l-1.09.14c-.6.08-.9.35-.9.82a.67.67,0,0,0,.22.52.84.84,0,0,0,.59.2,1.1,1.1,0,0,0,.85-.36A1.31,1.31,0,0,0,248.14,19.43Z"/><path class="cls-24" d="M257.21,21.86h-1.85V21h0a2.07,2.07,0,0,1-1.86,1,2.27,2.27,0,0,1-1.81-.79A3.28,3.28,0,0,1,251,19a3.62,3.62,0,0,1,.75-2.39,2.5,2.5,0,0,1,2-.89,1.69,1.69,0,0,1,1.62.83h0V13h1.85ZM255.4,19V18.5a1.41,1.41,0,0,0-.34-1,1.15,1.15,0,0,0-.89-.38,1.12,1.12,0,0,0-1,.48,2.24,2.24,0,0,0-.34,1.33,2,2,0,0,0,.33,1.22,1.11,1.11,0,0,0,.93.42,1.1,1.1,0,0,0,.91-.45A1.86,1.86,0,0,0,255.4,19Z"/><path class="cls-24" d="M263.76,21.86H262V21h0a1.94,1.94,0,0,1-1.79,1,1.85,1.85,0,0,1-1.37-.49,1.8,1.8,0,0,1-.5-1.33q0-1.74,2.07-2L262,18c0-.65-.36-1-1.07-1a3.59,3.59,0,0,0-2,.64v-1.4a4.67,4.67,0,0,1,1.06-.35,5.56,5.56,0,0,1,1.22-.15,2.26,2.26,0,0,1,2.56,2.56ZM262,19.43V19l-1.09.14c-.61.08-.91.35-.91.82a.71.71,0,0,0,.22.52.89.89,0,0,0,.6.2,1.1,1.1,0,0,0,.85-.36A1.31,1.31,0,0,0,262,19.43Z"/><path class="cls-24" d="M257.55,67.33v-8h2.56a3.05,3.05,0,0,1,1.85.51,1.59,1.59,0,0,1,.68,1.33,1.89,1.89,0,0,1-.39,1.19,2.09,2.09,0,0,1-1.07.72v0a2.11,2.11,0,0,1,1.33.62A1.85,1.85,0,0,1,263,65a2,2,0,0,1-.81,1.67,3.21,3.21,0,0,1-2.06.64Zm1.33-7v2.29h.87a1.67,1.67,0,0,0,1.09-.33,1.15,1.15,0,0,0,.39-.93c0-.69-.46-1-1.38-1Zm0,3.36v2.55H260a1.76,1.76,0,0,0,1.16-.34,1.18,1.18,0,0,0,.4-1c0-.84-.58-1.26-1.73-1.26Z"/><path class="cls-24" d="M268.48,67.33h-1.27v-.9h0a1.9,1.9,0,0,1-1.74,1,1.82,1.82,0,0,1-1.33-.46,1.59,1.59,0,0,1-.48-1.21c0-1.09.62-1.72,1.87-1.9l1.71-.24q0-1.23-1.17-1.23a2.78,2.78,0,0,0-1.85.7V62a4.09,4.09,0,0,1,2.1-.53,1.91,1.91,0,0,1,2.18,2.14Zm-1.26-2.82-1.21.16a1.84,1.84,0,0,0-.84.28.79.79,0,0,0-.29.7.76.76,0,0,0,.26.59,1,1,0,0,0,.7.24,1.29,1.29,0,0,0,1-.42,1.48,1.48,0,0,0,.39-1Z"/><path class="cls-24" d="M273.89,67.07a3.25,3.25,0,0,1-1.63.39,2.76,2.76,0,0,1-2.07-.8,2.83,2.83,0,0,1-.78-2.07,3.11,3.11,0,0,1,.84-2.28,3,3,0,0,1,2.26-.86,3.35,3.35,0,0,1,1.39.27v1.21a2.1,2.1,0,0,0-1.28-.45,1.78,1.78,0,0,0-1.35.56,2,2,0,0,0-.53,1.47,1.93,1.93,0,0,0,.5,1.41,1.76,1.76,0,0,0,1.33.51,2,2,0,0,0,1.32-.5Z"/><path class="cls-24" d="M280.12,67.33h-1.66l-2.23-2.76h0v2.76H274.9V58.82h1.31v5.39h0l2.11-2.63h1.57l-2.38,2.77Z"/><path class="cls-24" d="M283,64.67h-3.07v-1H283Z"/><path class="cls-24" d="M289.14,64.81h-3.92a1.65,1.65,0,0,0,.49,1.23,1.81,1.81,0,0,0,1.29.43,2.84,2.84,0,0,0,1.69-.55v1a3.88,3.88,0,0,1-2.08.49,2.57,2.57,0,0,1-2-.78,3.14,3.14,0,0,1-.72-2.2,3.05,3.05,0,0,1,.79-2.19,2.61,2.61,0,0,1,2-.84,2.28,2.28,0,0,1,1.82.75,3.17,3.17,0,0,1,.65,2.11Zm-1.26-.92a1.69,1.69,0,0,0-.33-1.09,1.12,1.12,0,0,0-.9-.39,1.23,1.23,0,0,0-.95.41,1.86,1.86,0,0,0-.48,1.07Z"/><path class="cls-24" d="M295.21,67.33h-1.3V64.09c0-1.07-.38-1.61-1.14-1.61a1.24,1.24,0,0,0-1,.44,1.67,1.67,0,0,0-.39,1.13v3.28h-1.31V61.58h1.31v1h0a2.05,2.05,0,0,1,1.87-1.08,1.75,1.75,0,0,1,1.43.6,2.75,2.75,0,0,1,.49,1.76Z"/><path class="cls-24" d="M301.74,67.33h-1.3v-1h0a2.26,2.26,0,0,1-3.64.34,3.16,3.16,0,0,1-.64-2.1,3.52,3.52,0,0,1,.71-2.29,2.3,2.3,0,0,1,1.88-.85,1.81,1.81,0,0,1,1.69.93h0V58.82h1.3Zm-1.28-2.63V64a1.5,1.5,0,0,0-.4-1,1.37,1.37,0,0,0-1-.43,1.38,1.38,0,0,0-1.15.55,2.42,2.42,0,0,0-.42,1.51,2.22,2.22,0,0,0,.4,1.38,1.32,1.32,0,0,0,1.09.51,1.35,1.35,0,0,0,1.08-.49A1.84,1.84,0,0,0,300.46,64.7Z"/><path class="cls-24" d="M303.69,63a.8.8,0,0,1-.57-.22.69.69,0,0,1-.24-.53.71.71,0,0,1,.24-.54.8.8,0,0,1,.57-.22.79.79,0,0,1,.58.22.71.71,0,0,1,.24.54.69.69,0,0,1-.24.53A.79.79,0,0,1,303.69,63Zm0,4.44a.8.8,0,0,1-.57-.22.69.69,0,0,1-.24-.53.71.71,0,0,1,.24-.54.8.8,0,0,1,.57-.22.79.79,0,0,1,.58.22.71.71,0,0,1,.24.54.69.69,0,0,1-.24.53A.79.79,0,0,1,303.69,67.45Z"/><path class="cls-24" d="M310,64.41v2.92h-1.33v-8h2.44a3.21,3.21,0,0,1,2.15.64,2.26,2.26,0,0,1,.77,1.82,2.5,2.5,0,0,1-.8,1.92,3,3,0,0,1-2.16.75Zm0-4v2.94h.87a1.9,1.9,0,0,0,1.31-.4,1.44,1.44,0,0,0,.44-1.12c0-.95-.55-1.42-1.65-1.42Z"/><path class="cls-24" d="M320,67.33h-1.3v-.91h0a1.87,1.87,0,0,1-1.76,1c-1.36,0-2-.81-2-2.44V61.58h1.3v3.3c0,1,.4,1.55,1.19,1.55a1.21,1.21,0,0,0,1-.43,1.6,1.6,0,0,0,.37-1.11V61.58H320Z"/><path class="cls-24" d="M326.24,64.81h-3.92a1.65,1.65,0,0,0,.49,1.23,1.81,1.81,0,0,0,1.29.43,2.82,2.82,0,0,0,1.69-.55v1a3.86,3.86,0,0,1-2.08.49,2.58,2.58,0,0,1-2-.78,3.14,3.14,0,0,1-.72-2.2,3.1,3.1,0,0,1,.79-2.19,2.63,2.63,0,0,1,2-.84,2.28,2.28,0,0,1,1.82.75,3.17,3.17,0,0,1,.65,2.11ZM325,63.89a1.63,1.63,0,0,0-.33-1.09,1.12,1.12,0,0,0-.9-.39,1.24,1.24,0,0,0-.95.41,1.86,1.86,0,0,0-.48,1.07Z"/><path class="cls-24" d="M330.53,62.82a1.1,1.1,0,0,0-.68-.18,1.16,1.16,0,0,0-1,.52,2.39,2.39,0,0,0-.38,1.42v2.75h-1.31V61.58h1.31v1.18h0a2,2,0,0,1,.59-.94,1.28,1.28,0,0,1,.88-.34,1,1,0,0,1,.54.11Z"/><path class="cls-24" d="M334.53,67.27a2.25,2.25,0,0,1-1,.19c-1.12,0-1.67-.54-1.67-1.61V62.6h-1v-1h1V60.25l1.3-.37v1.7h1.38v1h-1.38v2.88a1.17,1.17,0,0,0,.18.73.8.8,0,0,0,.62.22,1,1,0,0,0,.58-.19Z"/><path class="cls-24" d="M337.84,67.46a2.83,2.83,0,0,1-2.12-.8,2.92,2.92,0,0,1-.8-2.14A2.83,2.83,0,0,1,338,61.45a2.74,2.74,0,0,1,2.1.79,3.05,3.05,0,0,1,.76,2.19,3,3,0,0,1-.82,2.21A2.9,2.9,0,0,1,337.84,67.46Zm.07-5a1.48,1.48,0,0,0-1.21.54,2.19,2.19,0,0,0-.45,1.47,2.09,2.09,0,0,0,.45,1.42,1.5,1.5,0,0,0,1.21.52,1.44,1.44,0,0,0,1.18-.51,2.28,2.28,0,0,0,.41-1.45,2.34,2.34,0,0,0-.41-1.47A1.45,1.45,0,0,0,337.91,62.48Z"/><path class="cls-24" d="M342.41,63a.8.8,0,0,1-.57-.22.69.69,0,0,1-.24-.53.71.71,0,0,1,.24-.54.86.86,0,0,1,1.15,0,.71.71,0,0,1,.24.54.69.69,0,0,1-.24.53A.81.81,0,0,1,342.41,63Zm0,4.44a.8.8,0,0,1-.57-.22.69.69,0,0,1-.24-.53.71.71,0,0,1,.24-.54.86.86,0,0,1,1.15,0,.71.71,0,0,1,.24.54.69.69,0,0,1-.24.53A.81.81,0,0,1,342.41,67.45Z"/><path class="cls-24" d="M347.08,67V65.81a2.79,2.79,0,0,0,1.77.62,2.07,2.07,0,0,0,1.28-.36,1.19,1.19,0,0,0,.48-1c0-.91-.69-1.37-2.09-1.37h-.62V62.66h.59q1.86,0,1.86-1.29c0-.79-.48-1.19-1.45-1.19a2.36,2.36,0,0,0-1.52.58V59.6a4,4,0,0,1,1.94-.46,2.62,2.62,0,0,1,1.72.54,1.72,1.72,0,0,1,.64,1.38,2,2,0,0,1-1.62,2v0a2.16,2.16,0,0,1,1.38.61,1.81,1.81,0,0,1,.51,1.31,2.16,2.16,0,0,1-.82,1.75,3.3,3.3,0,0,1-2.14.66A3.63,3.63,0,0,1,347.08,67Z"/><path class="cls-24" d="M353.17,67V65.81a2.84,2.84,0,0,0,1.78.62,2.09,2.09,0,0,0,1.28-.36,1.19,1.19,0,0,0,.48-1c0-.91-.7-1.37-2.09-1.37H354V62.66h.6q1.86,0,1.86-1.29c0-.79-.49-1.19-1.45-1.19a2.34,2.34,0,0,0-1.52.58V59.6a3.93,3.93,0,0,1,1.93-.46,2.59,2.59,0,0,1,1.72.54,1.72,1.72,0,0,1,.65,1.38,2,2,0,0,1-1.62,2v0a2.16,2.16,0,0,1,1.38.61,1.84,1.84,0,0,1,.5,1.31,2.15,2.15,0,0,1-.81,1.75,3.31,3.31,0,0,1-2.15.66A3.68,3.68,0,0,1,353.17,67Z"/><path class="cls-24" d="M359.09,65.08a2.52,2.52,0,0,1,.09-.67,2,2,0,0,1,.26-.6,1.85,1.85,0,0,1,.44-.49,2,2,0,0,1,.62-.36,2.35,2.35,0,0,1-.84-.75,1.8,1.8,0,0,1-.31-1,1.87,1.87,0,0,1,.19-.82,2,2,0,0,1,.5-.65,2.27,2.27,0,0,1,.76-.43,2.73,2.73,0,0,1,1-.16,2.93,2.93,0,0,1,1,.16,2.55,2.55,0,0,1,.76.43,2,2,0,0,1,.51.65,1.89,1.89,0,0,1,.18.82,1.8,1.8,0,0,1-.31,1A2.37,2.37,0,0,1,363,63a2.26,2.26,0,0,1,.61.35,2.08,2.08,0,0,1,.72,1.09,2.59,2.59,0,0,1,.09.68,2.34,2.34,0,0,1-.2,1,2.15,2.15,0,0,1-.55.75,2.53,2.53,0,0,1-.85.49,3.35,3.35,0,0,1-1.08.17,3.41,3.41,0,0,1-1.09-.17,2.58,2.58,0,0,1-.84-.49,2.17,2.17,0,0,1-.56-.75A2.34,2.34,0,0,1,359.09,65.08Zm1.27-.11a1.72,1.72,0,0,0,.1.62,1.33,1.33,0,0,0,.29.47,1.35,1.35,0,0,0,.44.29,1.59,1.59,0,0,0,.59.1,1.47,1.47,0,0,0,.56-.11,1.2,1.2,0,0,0,.45-.29,1.49,1.49,0,0,0,.29-.47,1.66,1.66,0,0,0,.11-.61,1.61,1.61,0,0,0-.1-.58,1.33,1.33,0,0,0-.29-.47,1.16,1.16,0,0,0-.44-.32,1.4,1.4,0,0,0-.58-.12,1.32,1.32,0,0,0-.57.11,1.25,1.25,0,0,0-.45.31,1.49,1.49,0,0,0-.29.47A1.64,1.64,0,0,0,360.36,65Zm.27-3.64a1.4,1.4,0,0,0,.09.47,1.47,1.47,0,0,0,.25.38,1.24,1.24,0,0,0,.35.25,1.12,1.12,0,0,0,.44.09,1,1,0,0,0,.44-.09,1.19,1.19,0,0,0,.36-.26,1.05,1.05,0,0,0,.25-.37,1.27,1.27,0,0,0,0-.94,1.18,1.18,0,0,0-.24-.37,1,1,0,0,0-.36-.25,1.13,1.13,0,0,0-.45-.09,1.18,1.18,0,0,0-.46.09,1.1,1.1,0,0,0-.35.26,1,1,0,0,0-.23.38A1.13,1.13,0,0,0,360.63,61.33Z"/><path class="cls-24" d="M370.56,62.87a7,7,0,0,1-.27,2.07,4.22,4.22,0,0,1-.71,1.44,2.83,2.83,0,0,1-1.08.82,3.25,3.25,0,0,1-1.32.27,3.55,3.55,0,0,1-.46,0l-.45-.07-.38-.1-.28-.1V66l.29.15a3.35,3.35,0,0,0,.38.14,3,3,0,0,0,.43.09,2.09,2.09,0,0,0,.43,0,1.87,1.87,0,0,0,.86-.19,1.68,1.68,0,0,0,.67-.55,2.68,2.68,0,0,0,.42-.9,4.73,4.73,0,0,0,.15-1.26h0a1.68,1.68,0,0,1-.27.34,1.56,1.56,0,0,1-.38.28,2.22,2.22,0,0,1-.47.2,2.45,2.45,0,0,1-.56.07,2.42,2.42,0,0,1-.94-.18,2.28,2.28,0,0,1-.76-.5,2.37,2.37,0,0,1-.5-.79,2.87,2.87,0,0,1-.18-1,3,3,0,0,1,.21-1.14,2.59,2.59,0,0,1,.57-.86,2.49,2.49,0,0,1,.86-.55,2.91,2.91,0,0,1,1.07-.2,2.53,2.53,0,0,1,1,.21,2.14,2.14,0,0,1,.86.65,3.35,3.35,0,0,1,.58,1.15A6.15,6.15,0,0,1,370.56,62.87ZM369.2,62a2.45,2.45,0,0,0-.11-.74,1.7,1.7,0,0,0-.29-.57,1.39,1.39,0,0,0-.44-.36,1.16,1.16,0,0,0-.56-.13,1.3,1.3,0,0,0-.51.11,1.43,1.43,0,0,0-.43.31,1.57,1.57,0,0,0-.28.49,1.61,1.61,0,0,0-.11.63,2,2,0,0,0,.1.68,1.48,1.48,0,0,0,.29.49,1.19,1.19,0,0,0,.45.3,1.48,1.48,0,0,0,.57.11,1.27,1.27,0,0,0,.52-.11,1.29,1.29,0,0,0,.7-.7A1.45,1.45,0,0,0,369.2,62Z"/><path class="cls-24" d="M257.55,144V136h2.56a3.05,3.05,0,0,1,1.85.51,1.59,1.59,0,0,1,.68,1.33,1.89,1.89,0,0,1-.39,1.19,2.09,2.09,0,0,1-1.07.72v0a2.11,2.11,0,0,1,1.33.62,1.85,1.85,0,0,1,.49,1.35,2,2,0,0,1-.81,1.67,3.21,3.21,0,0,1-2.06.64Zm1.33-7v2.29h.87a1.67,1.67,0,0,0,1.09-.33,1.15,1.15,0,0,0,.39-.93c0-.69-.46-1-1.38-1Zm0,3.36v2.55H260a1.76,1.76,0,0,0,1.16-.34,1.18,1.18,0,0,0,.4-1c0-.84-.58-1.26-1.73-1.26Z"/><path class="cls-24" d="M268.48,144h-1.27v-.9h0a1.9,1.9,0,0,1-1.74,1,1.82,1.82,0,0,1-1.33-.46,1.59,1.59,0,0,1-.48-1.21c0-1.09.62-1.72,1.87-1.9l1.71-.24q0-1.23-1.17-1.23a2.78,2.78,0,0,0-1.85.7v-1.14a4,4,0,0,1,2.1-.53,1.91,1.91,0,0,1,2.18,2.14Zm-1.26-2.82-1.21.16a1.84,1.84,0,0,0-.84.28.79.79,0,0,0-.29.7.76.76,0,0,0,.26.59,1,1,0,0,0,.7.24,1.29,1.29,0,0,0,1-.42,1.49,1.49,0,0,0,.39-1.06Z"/><path class="cls-24" d="M273.89,143.74a3.25,3.25,0,0,1-1.63.39,2.76,2.76,0,0,1-2.07-.8,2.83,2.83,0,0,1-.78-2.07,3.11,3.11,0,0,1,.84-2.28,3,3,0,0,1,2.26-.86,3.35,3.35,0,0,1,1.39.27v1.21a2.1,2.1,0,0,0-1.28-.45,1.78,1.78,0,0,0-1.35.56,2,2,0,0,0-.53,1.47,1.89,1.89,0,0,0,.5,1.4,1.73,1.73,0,0,0,1.33.52,2.07,2.07,0,0,0,1.32-.5Z"/><path class="cls-24" d="M280.12,144h-1.66l-2.23-2.76h0V144H274.9v-8.51h1.31v5.39h0l2.11-2.63h1.57L277.53,141Z"/><path class="cls-24" d="M283,141.34h-3.07v-1H283Z"/><path class="cls-24" d="M289.14,141.48h-3.92a1.65,1.65,0,0,0,.49,1.23,1.81,1.81,0,0,0,1.29.43,2.84,2.84,0,0,0,1.69-.55v1a3.88,3.88,0,0,1-2.08.49,2.57,2.57,0,0,1-2-.78,3.14,3.14,0,0,1-.72-2.2,3.05,3.05,0,0,1,.79-2.19,2.61,2.61,0,0,1,2-.84,2.28,2.28,0,0,1,1.82.75,3.17,3.17,0,0,1,.65,2.11Zm-1.26-.92a1.69,1.69,0,0,0-.33-1.09,1.12,1.12,0,0,0-.9-.39,1.23,1.23,0,0,0-.95.41,1.86,1.86,0,0,0-.48,1.07Z"/><path class="cls-24" d="M295.21,144h-1.3v-3.24c0-1.07-.38-1.61-1.14-1.61a1.24,1.24,0,0,0-1,.44,1.67,1.67,0,0,0-.39,1.13V144h-1.31v-5.75h1.31v.95h0a2.05,2.05,0,0,1,1.87-1.08,1.75,1.75,0,0,1,1.43.6,2.75,2.75,0,0,1,.49,1.76Z"/><path class="cls-24" d="M301.74,144h-1.3v-1h0a2.26,2.26,0,0,1-3.64.34,3.16,3.16,0,0,1-.64-2.1,3.52,3.52,0,0,1,.71-2.29,2.3,2.3,0,0,1,1.88-.85,1.81,1.81,0,0,1,1.69.93h0v-3.56h1.3Zm-1.28-2.63v-.75a1.5,1.5,0,0,0-.4-1,1.45,1.45,0,0,0-2.17.12,2.42,2.42,0,0,0-.42,1.51,2.22,2.22,0,0,0,.4,1.38,1.32,1.32,0,0,0,1.09.51,1.35,1.35,0,0,0,1.08-.49A1.84,1.84,0,0,0,300.46,141.37Z"/><path class="cls-24" d="M303.69,139.68a.8.8,0,0,1-.57-.22.72.72,0,0,1,0-1.07.8.8,0,0,1,.57-.22.79.79,0,0,1,.58.22.72.72,0,0,1,0,1.07A.79.79,0,0,1,303.69,139.68Zm0,4.44a.8.8,0,0,1-.57-.22.69.69,0,0,1-.24-.53.71.71,0,0,1,.24-.54.8.8,0,0,1,.57-.22.79.79,0,0,1,.58.22.71.71,0,0,1,.24.54.69.69,0,0,1-.24.53A.79.79,0,0,1,303.69,144.12Z"/><path class="cls-24" d="M310,141.08V144h-1.33V136h2.44a3.21,3.21,0,0,1,2.15.64,2.26,2.26,0,0,1,.77,1.82,2.51,2.51,0,0,1-.8,1.92,3,3,0,0,1-2.16.75Zm0-4V140h.87a1.9,1.9,0,0,0,1.31-.4,1.44,1.44,0,0,0,.44-1.12c0-.95-.55-1.42-1.65-1.42Z"/><path class="cls-24" d="M320,144h-1.3v-.91h0a1.87,1.87,0,0,1-1.76,1c-1.36,0-2-.81-2-2.44v-3.44h1.3v3.3c0,1,.4,1.55,1.19,1.55a1.21,1.21,0,0,0,1-.43,1.6,1.6,0,0,0,.37-1.11v-3.31H320Z"/><path class="cls-24" d="M326.24,141.48h-3.92a1.65,1.65,0,0,0,.49,1.23,1.81,1.81,0,0,0,1.29.43,2.82,2.82,0,0,0,1.69-.55v1a3.86,3.86,0,0,1-2.08.49,2.58,2.58,0,0,1-2-.78,3.14,3.14,0,0,1-.72-2.2,3.1,3.1,0,0,1,.79-2.19,2.63,2.63,0,0,1,2-.84,2.28,2.28,0,0,1,1.82.75,3.17,3.17,0,0,1,.65,2.11Zm-1.26-.92a1.63,1.63,0,0,0-.33-1.09,1.12,1.12,0,0,0-.9-.39,1.24,1.24,0,0,0-.95.41,1.86,1.86,0,0,0-.48,1.07Z"/><path class="cls-24" d="M330.53,139.49a1.1,1.1,0,0,0-.68-.18,1.16,1.16,0,0,0-1,.52,2.39,2.39,0,0,0-.38,1.42V144h-1.31v-5.75h1.31v1.18h0a2,2,0,0,1,.59-.94,1.28,1.28,0,0,1,.88-.34,1,1,0,0,1,.54.11Z"/><path class="cls-24" d="M334.53,143.94a2.25,2.25,0,0,1-1,.19c-1.12,0-1.67-.54-1.67-1.61v-3.25h-1v-1h1v-1.33l1.3-.37v1.7h1.38v1h-1.38v2.88a1.17,1.17,0,0,0,.18.73.8.8,0,0,0,.62.22,1,1,0,0,0,.58-.19Z"/><path class="cls-24" d="M337.84,144.13a2.83,2.83,0,0,1-2.12-.8,2.92,2.92,0,0,1-.8-2.14,2.83,2.83,0,0,1,3.06-3.07,2.74,2.74,0,0,1,2.1.79,3.05,3.05,0,0,1,.76,2.19,3,3,0,0,1-.82,2.21A2.9,2.9,0,0,1,337.84,144.13Zm.07-5a1.48,1.48,0,0,0-1.21.54,2.19,2.19,0,0,0-.45,1.47,2.09,2.09,0,0,0,.45,1.42,1.5,1.5,0,0,0,1.21.52,1.44,1.44,0,0,0,1.18-.51,2.8,2.8,0,0,0,0-2.92A1.45,1.45,0,0,0,337.91,139.15Z"/><path class="cls-24" d="M349.1,136v5.2h1.19v1.08H349.1V144h-1.26v-1.77h-3.65v-1.09c.33-.37.67-.78,1-1.21s.67-.87,1-1.32.61-.91.88-1.36a12,12,0,0,0,.7-1.3Zm-1.26,5.2v-3.38a21.67,21.67,0,0,1-1.21,1.92c-.4.54-.78,1-1.12,1.46Z"/><path class="cls-24" d="M355.44,136v5.2h1.19v1.08h-1.19V144h-1.27v-1.77h-3.64v-1.09c.33-.37.67-.78,1-1.21s.68-.87,1-1.32.62-.91.89-1.36a10.37,10.37,0,0,0,.69-1.3Zm-1.27,5.2v-3.38a17.86,17.86,0,0,1-1.21,1.92c-.39.54-.77,1-1.12,1.46Z"/><path class="cls-24" d="M357.27,143.7v-1.22a2.79,2.79,0,0,0,1.77.62,2.07,2.07,0,0,0,1.28-.36,1.19,1.19,0,0,0,.48-1c0-.92-.69-1.37-2.09-1.37h-.62v-1h.59q1.86,0,1.86-1.29c0-.79-.48-1.19-1.45-1.19a2.36,2.36,0,0,0-1.52.58v-1.16a4,4,0,0,1,1.94-.46,2.62,2.62,0,0,1,1.72.54,1.72,1.72,0,0,1,.64,1.38,2,2,0,0,1-1.62,2.05v0a2.16,2.16,0,0,1,1.38.61,1.81,1.81,0,0,1,.51,1.31,2.16,2.16,0,0,1-.82,1.75,3.3,3.3,0,0,1-2.14.66A3.63,3.63,0,0,1,357.27,143.7Z"/><path class="cls-24" d="M8.8,123.76h-3v2.42H8.56v1.13H5.79v3.37H4.45v-8.05H8.8Z"/><path class="cls-24" d="M13.13,126.17a1.08,1.08,0,0,0-.68-.18,1.16,1.16,0,0,0-1,.52,2.32,2.32,0,0,0-.39,1.42v2.75H9.8v-5.75h1.3v1.19h0a2.06,2.06,0,0,1,.59-1,1.3,1.3,0,0,1,.88-.34,1.09,1.09,0,0,1,.54.11Z"/><path class="cls-24" d="M16.21,130.82a2.84,2.84,0,0,1-2.12-.81,2.92,2.92,0,0,1-.8-2.14,2.83,2.83,0,0,1,3.06-3.07,2.74,2.74,0,0,1,2.1.79,3.48,3.48,0,0,1-.05,4.4A3,3,0,0,1,16.21,130.82Zm.07-5a1.47,1.47,0,0,0-1.21.53,2.19,2.19,0,0,0-.44,1.47,2.08,2.08,0,0,0,.44,1.42,1.5,1.5,0,0,0,1.21.52,1.44,1.44,0,0,0,1.18-.51,2.28,2.28,0,0,0,.41-1.45,2.36,2.36,0,0,0-.41-1.47A1.44,1.44,0,0,0,16.28,125.84Z"/><path class="cls-24" d="M25.37,130.68H24.06v-3.24c0-1.07-.38-1.61-1.14-1.61a1.25,1.25,0,0,0-1,.45,1.63,1.63,0,0,0-.39,1.12v3.28H20.24v-5.75h1.31v1h0a2,2,0,0,1,1.86-1.09,1.73,1.73,0,0,1,1.43.61,2.71,2.71,0,0,1,.5,1.76Z"/><path class="cls-24" d="M29.7,130.62a2.25,2.25,0,0,1-1,.19c-1.11,0-1.67-.53-1.67-1.6V126h-1v-1h1V123.6l1.3-.37v1.7H29.7v1H28.32v2.88a1.16,1.16,0,0,0,.19.73.75.75,0,0,0,.62.22.93.93,0,0,0,.57-.19Z"/><path class="cls-24" d="M33,128H29.91v-1H33Z"/><path class="cls-24" d="M39.15,128.16H35.23a1.66,1.66,0,0,0,.5,1.23,1.8,1.8,0,0,0,1.28.43,2.8,2.8,0,0,0,1.69-.55v1a3.82,3.82,0,0,1-2.07.5,2.54,2.54,0,0,1-2-.79,3.53,3.53,0,0,1,.07-4.39,2.61,2.61,0,0,1,2-.84,2.28,2.28,0,0,1,1.83.75,3.17,3.17,0,0,1,.64,2.11Zm-1.25-.92a1.69,1.69,0,0,0-.34-1.09,1.08,1.08,0,0,0-.89-.39,1.25,1.25,0,0,0-1,.41,1.86,1.86,0,0,0-.48,1.07Z"/><path class="cls-24" d="M45.23,130.68H43.92v-3.24c0-1.07-.38-1.61-1.13-1.61a1.25,1.25,0,0,0-1,.45,1.62,1.62,0,0,0-.38,1.12v3.28H40.11v-5.75h1.31v1h0a2,2,0,0,1,1.86-1.09,1.72,1.72,0,0,1,1.43.61,2.71,2.71,0,0,1,.5,1.76Z"/><path class="cls-24" d="M51.76,130.68H50.45v-1h0a2.24,2.24,0,0,1-3.63.33,3.16,3.16,0,0,1-.64-2.1,3.47,3.47,0,0,1,.7-2.28,2.29,2.29,0,0,1,1.88-.86,1.79,1.79,0,0,1,1.69.93h0v-3.56h1.31Zm-1.29-2.63v-.75a1.46,1.46,0,0,0-.4-1,1.32,1.32,0,0,0-1-.42,1.37,1.37,0,0,0-1.15.54,2.42,2.42,0,0,0-.42,1.51,2.19,2.19,0,0,0,.4,1.39,1.33,1.33,0,0,0,1.08.5,1.35,1.35,0,0,0,1.09-.49A1.89,1.89,0,0,0,50.47,128.05Z"/><path class="cls-24" d="M53.71,126.36a.78.78,0,0,1-.57-.22.69.69,0,0,1-.24-.53.71.71,0,0,1,.24-.54.78.78,0,0,1,.57-.22.81.81,0,0,1,.58.22.71.71,0,0,1,.24.54.69.69,0,0,1-.24.53A.81.81,0,0,1,53.71,126.36Zm0,4.44a.78.78,0,0,1-.57-.22.68.68,0,0,1-.24-.53.71.71,0,0,1,.24-.54.78.78,0,0,1,.57-.22.81.81,0,0,1,.58.22.71.71,0,0,1,.24.54.68.68,0,0,1-.24.53A.81.81,0,0,1,53.71,130.8Z"/><path class="cls-24" d="M60,127.76v2.92H58.68v-8.05h2.44a3.19,3.19,0,0,1,2.15.65,2.23,2.23,0,0,1,.76,1.81,2.49,2.49,0,0,1-.79,1.92,3,3,0,0,1-2.16.75Zm0-4v2.94h.86a1.88,1.88,0,0,0,1.31-.4,1.41,1.41,0,0,0,.45-1.12c0-1-.55-1.42-1.65-1.42Z"/><path class="cls-24" d="M70,130.68h-1.3v-.91h0a1.86,1.86,0,0,1-1.76,1c-1.36,0-2-.82-2-2.45v-3.44h1.31v3.3c0,1,.39,1.55,1.19,1.55a1.21,1.21,0,0,0,1-.42,1.65,1.65,0,0,0,.38-1.12v-3.31H70Z"/><path class="cls-24" d="M76.26,128.16H72.34a1.65,1.65,0,0,0,.49,1.23,1.81,1.81,0,0,0,1.29.43,2.84,2.84,0,0,0,1.69-.55v1a3.88,3.88,0,0,1-2.08.5,2.54,2.54,0,0,1-2-.79,3.12,3.12,0,0,1-.72-2.2,3.07,3.07,0,0,1,.79-2.19,2.61,2.61,0,0,1,2-.84,2.28,2.28,0,0,1,1.82.75,3.17,3.17,0,0,1,.65,2.11ZM75,127.24a1.69,1.69,0,0,0-.33-1.09,1.12,1.12,0,0,0-.9-.39,1.24,1.24,0,0,0-1,.41,1.86,1.86,0,0,0-.48,1.07Z"/><path class="cls-24" d="M80.55,126.17a1.12,1.12,0,0,0-.68-.18,1.16,1.16,0,0,0-1,.52,2.32,2.32,0,0,0-.39,1.42v2.75h-1.3v-5.75h1.3v1.19h0a2,2,0,0,1,.58-1,1.32,1.32,0,0,1,.89-.34,1.15,1.15,0,0,1,.54.11Z"/><path class="cls-24" d="M84.54,130.62a2.2,2.2,0,0,1-1,.19c-1.12,0-1.68-.53-1.68-1.6V126h-1v-1h1V123.6l1.31-.37v1.7h1.37v1H83.17v2.88a1.17,1.17,0,0,0,.18.73.77.77,0,0,0,.62.22.93.93,0,0,0,.57-.19Z"/><path class="cls-24" d="M87.86,130.82a2.85,2.85,0,0,1-2.13-.81,3,3,0,0,1-.79-2.14A2.83,2.83,0,0,1,88,124.8a2.74,2.74,0,0,1,2.1.79,3.06,3.06,0,0,1,.75,2.19A3,3,0,0,1,90,130,2.92,2.92,0,0,1,87.86,130.82Zm.06-5a1.48,1.48,0,0,0-1.21.53,2.24,2.24,0,0,0-.44,1.47,2.09,2.09,0,0,0,.45,1.42,1.5,1.5,0,0,0,1.2.52,1.43,1.43,0,0,0,1.18-.51,2.22,2.22,0,0,0,.42-1.45,2.3,2.3,0,0,0-.42-1.47A1.43,1.43,0,0,0,87.92,125.84Z"/><path class="cls-24" d="M92.43,126.36a.77.77,0,0,1-.57-.22.69.69,0,0,1-.24-.53.71.71,0,0,1,.24-.54.77.77,0,0,1,.57-.22.81.81,0,0,1,.58.22.71.71,0,0,1,.24.54.69.69,0,0,1-.24.53A.81.81,0,0,1,92.43,126.36Zm0,4.44a.77.77,0,0,1-.57-.22.68.68,0,0,1-.24-.53.71.71,0,0,1,.24-.54.77.77,0,0,1,.57-.22.81.81,0,0,1,.58.22.71.71,0,0,1,.24.54.68.68,0,0,1-.24.53A.81.81,0,0,1,92.43,130.8Z"/><path class="cls-24" d="M97.09,130.38v-1.22a2.78,2.78,0,0,0,1.78.62,2.09,2.09,0,0,0,1.28-.36,1.18,1.18,0,0,0,.48-1c0-.91-.7-1.37-2.09-1.37h-.63v-1h.6c1.24,0,1.86-.44,1.86-1.3s-.49-1.19-1.45-1.19a2.39,2.39,0,0,0-1.52.58V123a3.83,3.83,0,0,1,1.93-.47,2.59,2.59,0,0,1,1.72.54,1.73,1.73,0,0,1,.65,1.39,2,2,0,0,1-1.62,2v0a2.16,2.16,0,0,1,1.38.61,1.84,1.84,0,0,1,.5,1.31,2.15,2.15,0,0,1-.81,1.75,3.33,3.33,0,0,1-2.15.67A3.67,3.67,0,0,1,97.09,130.38Z"/><path class="cls-24" d="M103.19,130.38v-1.22a2.75,2.75,0,0,0,1.77.62,2.1,2.1,0,0,0,1.29-.36,1.18,1.18,0,0,0,.48-1c0-.91-.7-1.37-2.1-1.37H104v-1h.6c1.23,0,1.85-.44,1.85-1.3s-.48-1.19-1.44-1.19a2.44,2.44,0,0,0-1.53.58V123a3.9,3.9,0,0,1,1.94-.47,2.59,2.59,0,0,1,1.72.54,1.72,1.72,0,0,1,.64,1.39,2,2,0,0,1-1.61,2v0a2.11,2.11,0,0,1,1.37.61,1.81,1.81,0,0,1,.51,1.31,2.15,2.15,0,0,1-.81,1.75,3.33,3.33,0,0,1-2.15.67A3.65,3.65,0,0,1,103.19,130.38Z"/><path class="cls-24" d="M109.11,128.44a2.54,2.54,0,0,1,.09-.68,1.79,1.79,0,0,1,.26-.6,2,2,0,0,1,.43-.49,2.24,2.24,0,0,1,.62-.36,2.31,2.31,0,0,1-.83-.75,1.8,1.8,0,0,1-.31-1,1.86,1.86,0,0,1,.18-.82,2,2,0,0,1,.51-.65,2.46,2.46,0,0,1,.76-.43,2.93,2.93,0,0,1,1-.16,3,3,0,0,1,1,.16,2.55,2.55,0,0,1,.76.43,1.9,1.9,0,0,1,.5.66,1.85,1.85,0,0,1,.18.81,1.79,1.79,0,0,1-.3,1,2.37,2.37,0,0,1-.82.75,2.43,2.43,0,0,1,.61.35,2.13,2.13,0,0,1,.45.5,2,2,0,0,1,.27.6,2.48,2.48,0,0,1,.09.68,2.32,2.32,0,0,1-.2,1,2.15,2.15,0,0,1-.55.75,2.63,2.63,0,0,1-.85.49,3.55,3.55,0,0,1-2.17,0,2.63,2.63,0,0,1-.85-.49,2.28,2.28,0,0,1-.55-.75A2.17,2.17,0,0,1,109.11,128.44Zm1.27-.12a1.72,1.72,0,0,0,.1.62,1.47,1.47,0,0,0,.28.47,1.51,1.51,0,0,0,.45.29,1.57,1.57,0,0,0,.58.1,1.48,1.48,0,0,0,.57-.1,1.37,1.37,0,0,0,.45-.3,1.49,1.49,0,0,0,.29-.47,1.66,1.66,0,0,0,.11-.61,1.86,1.86,0,0,0-.1-.58,1.49,1.49,0,0,0-.29-.47,1.23,1.23,0,0,0-.45-.32,1.34,1.34,0,0,0-.58-.12,1.47,1.47,0,0,0-.56.11,1.21,1.21,0,0,0-.45.31,1.51,1.51,0,0,0-.3.47A1.72,1.72,0,0,0,110.38,128.32Zm.27-3.64a1.19,1.19,0,0,0,.09.47,1.23,1.23,0,0,0,.24.38,1,1,0,0,0,.36.25,1.12,1.12,0,0,0,.88,0,1.19,1.19,0,0,0,.36-.26,1.21,1.21,0,0,0,.25-.37,1.23,1.23,0,0,0,.09-.47,1.27,1.27,0,0,0-.09-.47,1.18,1.18,0,0,0-.24-.37,1,1,0,0,0-.36-.25,1.13,1.13,0,0,0-.45-.09,1.14,1.14,0,0,0-.46.09,1,1,0,0,0-.36.26,1.21,1.21,0,0,0-.23.38A1.33,1.33,0,0,0,110.65,124.68Z"/><path class="cls-24" d="M120.57,126.22a7,7,0,0,1-.26,2.07,4,4,0,0,1-.72,1.44,2.85,2.85,0,0,1-1.07.83,3.41,3.41,0,0,1-1.32.26,3.71,3.71,0,0,1-.47,0,3.11,3.11,0,0,1-.44-.07,3,3,0,0,1-.38-.1l-.28-.1v-1.17l.29.14a2.77,2.77,0,0,0,.38.14,2.84,2.84,0,0,0,.42.09,2.15,2.15,0,0,0,.43,0,2.05,2.05,0,0,0,.87-.18,2,2,0,0,0,.67-.55,2.84,2.84,0,0,0,.42-.91,4.73,4.73,0,0,0,.15-1.26h0a1.44,1.44,0,0,1-.27.34,1.78,1.78,0,0,1-.38.28,2.22,2.22,0,0,1-.47.2,2,2,0,0,1-.56.07,2.42,2.42,0,0,1-.94-.18,2.14,2.14,0,0,1-.76-.5,2.37,2.37,0,0,1-.5-.79,2.87,2.87,0,0,1-.18-1,3.17,3.17,0,0,1,.2-1.14,2.54,2.54,0,0,1,1.44-1.41,2.87,2.87,0,0,1,1.07-.2,2.56,2.56,0,0,1,1,.21,2.2,2.2,0,0,1,.85.65,3.36,3.36,0,0,1,.59,1.15A6.17,6.17,0,0,1,120.57,126.22Zm-1.36-.86a2.45,2.45,0,0,0-.1-.74,1.74,1.74,0,0,0-.29-.56,1.3,1.3,0,0,0-.44-.37,1.18,1.18,0,0,0-.56-.13,1.26,1.26,0,0,0-.51.11,1.31,1.31,0,0,0-.43.31,1.59,1.59,0,0,0-.29.49,1.83,1.83,0,0,0-.11.64,2,2,0,0,0,.11.67,1.33,1.33,0,0,0,.29.49,1.23,1.23,0,0,0,.44.3,1.58,1.58,0,0,0,.58.11,1.27,1.27,0,0,0,.52-.11,1.2,1.2,0,0,0,.41-.28,1.07,1.07,0,0,0,.28-.41A1.34,1.34,0,0,0,119.21,125.36Z"/><path class="cls-24" d="M68,141v2.92H66.7v-8h2.44a3.23,3.23,0,0,1,2.15.64,2.26,2.26,0,0,1,.77,1.82,2.51,2.51,0,0,1-.8,1.92,3,3,0,0,1-2.16.75Zm0-4v2.94h.86a1.88,1.88,0,0,0,1.31-.4,1.41,1.41,0,0,0,.45-1.12c0-.95-.55-1.42-1.65-1.42Z"/><path class="cls-24" d="M78,143.92H76.7V143h0a1.87,1.87,0,0,1-1.77,1c-1.36,0-2-.81-2-2.44v-3.44h1.31v3.3c0,1,.4,1.55,1.19,1.55a1.21,1.21,0,0,0,1-.43,1.65,1.65,0,0,0,.37-1.11v-3.31H78Z"/><path class="cls-24" d="M84.28,141.4H80.36a1.65,1.65,0,0,0,.49,1.23,1.81,1.81,0,0,0,1.29.43,2.82,2.82,0,0,0,1.69-.55v1.05a3.88,3.88,0,0,1-2.08.49,2.57,2.57,0,0,1-2-.78,3.14,3.14,0,0,1-.72-2.2,3.05,3.05,0,0,1,.79-2.19,2.61,2.61,0,0,1,2-.84,2.28,2.28,0,0,1,1.82.75,3.17,3.17,0,0,1,.65,2.11ZM83,140.48a1.63,1.63,0,0,0-.33-1.09,1.12,1.12,0,0,0-.9-.39,1.24,1.24,0,0,0-1,.41,1.86,1.86,0,0,0-.48,1.07Z"/><path class="cls-24" d="M88.57,139.41a1.12,1.12,0,0,0-.68-.18,1.16,1.16,0,0,0-1,.52,2.32,2.32,0,0,0-.39,1.42v2.75h-1.3v-5.75h1.3v1.18h0a1.94,1.94,0,0,1,.58-.94,1.32,1.32,0,0,1,.89-.34,1,1,0,0,1,.54.11Z"/><path class="cls-24" d="M92.56,143.86a2.2,2.2,0,0,1-1,.19c-1.12,0-1.67-.54-1.67-1.61v-3.25h-1v-1h1v-1.33l1.3-.37v1.7h1.37v1H91.19v2.88a1.17,1.17,0,0,0,.18.73A.8.8,0,0,0,92,143a.93.93,0,0,0,.57-.19Z"/><path class="cls-24" d="M95.88,144.05a2.82,2.82,0,0,1-2.12-.8,2.92,2.92,0,0,1-.8-2.14A2.83,2.83,0,0,1,96,138a2.74,2.74,0,0,1,2.1.79,3.49,3.49,0,0,1-.06,4.4A2.92,2.92,0,0,1,95.88,144.05Zm.06-5a1.46,1.46,0,0,0-1.2.54,2.19,2.19,0,0,0-.45,1.47,2.09,2.09,0,0,0,.45,1.42,1.5,1.5,0,0,0,1.2.52,1.45,1.45,0,0,0,1.19-.51,2.28,2.28,0,0,0,.41-1.45,2.32,2.32,0,0,0-.41-1.47A1.45,1.45,0,0,0,95.94,139.07Z"/><path class="cls-24" d="M107.14,135.87v5.2h1.19v1.08h-1.19v1.77h-1.27v-1.77h-3.64v-1.09c.33-.37.67-.78,1-1.21s.68-.87,1-1.32.62-.91.89-1.36a10.37,10.37,0,0,0,.69-1.3Zm-1.27,5.2v-3.38a17.86,17.86,0,0,1-1.21,1.92c-.39.54-.77,1-1.12,1.46Z"/><path class="cls-24" d="M113.48,135.87v5.2h1.19v1.08h-1.19v1.77h-1.27v-1.77h-3.64v-1.09c.33-.37.67-.78,1-1.21s.68-.87,1-1.32.62-.91.89-1.36a11.88,11.88,0,0,0,.69-1.3Zm-1.27,5.2v-3.38a19.58,19.58,0,0,1-1.21,1.92c-.4.54-.77,1-1.12,1.46Z"/><path class="cls-24" d="M115.31,143.62V142.4a2.79,2.79,0,0,0,1.77.62,2.07,2.07,0,0,0,1.28-.36,1.19,1.19,0,0,0,.48-1c0-.92-.69-1.37-2.09-1.37h-.62v-1.05h.59q1.86,0,1.86-1.29c0-.79-.48-1.19-1.45-1.19a2.34,2.34,0,0,0-1.52.58v-1.16a4,4,0,0,1,1.94-.46,2.58,2.58,0,0,1,1.71.54,1.72,1.72,0,0,1,.65,1.38,2,2,0,0,1-1.62,2v0a2.16,2.16,0,0,1,1.38.61,1.8,1.8,0,0,1,.5,1.31,2.15,2.15,0,0,1-.81,1.75,3.31,3.31,0,0,1-2.15.66A3.61,3.61,0,0,1,115.31,143.62Z"/><path class="cls-24" d="M74.26,154.2v2.92H72.93v-8.05h2.44a3.21,3.21,0,0,1,2.15.64,2.26,2.26,0,0,1,.77,1.82,2.5,2.5,0,0,1-.8,1.92,3,3,0,0,1-2.15.75Zm0-4v2.94h.87a1.9,1.9,0,0,0,1.31-.4,1.41,1.41,0,0,0,.45-1.12c0-1-.56-1.42-1.66-1.42Z"/><path class="cls-24" d="M84.29,157.12H83v-.91h0a1.87,1.87,0,0,1-1.77,1c-1.36,0-2-.81-2-2.44v-3.44h1.31v3.3c0,1,.4,1.55,1.19,1.55a1.21,1.21,0,0,0,1-.43,1.65,1.65,0,0,0,.37-1.11v-3.31h1.3Z"/><path class="cls-24" d="M90.63,154.6H86.71a1.65,1.65,0,0,0,.49,1.23,1.81,1.81,0,0,0,1.29.43,2.84,2.84,0,0,0,1.69-.55v1a3.88,3.88,0,0,1-2.08.49,2.57,2.57,0,0,1-2-.78,3.14,3.14,0,0,1-.72-2.2,3.05,3.05,0,0,1,.79-2.19,2.61,2.61,0,0,1,2-.84A2.28,2.28,0,0,1,90,152a3.17,3.17,0,0,1,.65,2.11Zm-1.26-.92a1.75,1.75,0,0,0-.33-1.09,1.12,1.12,0,0,0-.9-.39,1.23,1.23,0,0,0-1,.41,1.86,1.86,0,0,0-.48,1.07Z"/><path class="cls-24" d="M95,152.61a1.08,1.08,0,0,0-.68-.18,1.16,1.16,0,0,0-1,.52,2.32,2.32,0,0,0-.39,1.42v2.75h-1.3v-5.75h1.3v1.18h0a2,2,0,0,1,.59-.94,1.3,1.3,0,0,1,.88-.34,1,1,0,0,1,.54.11Z"/><path class="cls-24" d="M99,157.06a2.25,2.25,0,0,1-1,.19,1.45,1.45,0,0,1-1.67-1.61v-3.25h-1v-1h1V150l1.3-.37v1.7H99v1H97.65v2.88a1.1,1.1,0,0,0,.19.73.78.78,0,0,0,.61.22A1,1,0,0,0,99,156Z"/><path class="cls-24" d="M102.4,157.25a2.82,2.82,0,0,1-2.12-.8,2.92,2.92,0,0,1-.8-2.14,2.83,2.83,0,0,1,3.06-3.07,2.74,2.74,0,0,1,2.1.79,3.49,3.49,0,0,1-.06,4.4A2.92,2.92,0,0,1,102.4,157.25Zm.06-5a1.46,1.46,0,0,0-1.2.54,2.19,2.19,0,0,0-.45,1.47,2.09,2.09,0,0,0,.45,1.42,1.5,1.5,0,0,0,1.2.52,1.45,1.45,0,0,0,1.19-.51,2.28,2.28,0,0,0,.41-1.45,2.32,2.32,0,0,0-.41-1.47A1.45,1.45,0,0,0,102.46,152.27Z"/><path class="cls-24" d="M109.08,154.87a2.52,2.52,0,0,1,.09-.67,2.32,2.32,0,0,1,.26-.6,2,2,0,0,1,.44-.49,2.1,2.1,0,0,1,.62-.36,2.23,2.23,0,0,1-.83-.75,1.72,1.72,0,0,1-.31-1,1.86,1.86,0,0,1,.18-.82,1.89,1.89,0,0,1,.51-.65,2.09,2.09,0,0,1,.76-.43,2.67,2.67,0,0,1,1-.16,2.93,2.93,0,0,1,1,.16,2.61,2.61,0,0,1,.77.43,2.1,2.1,0,0,1,.5.65,1.89,1.89,0,0,1,.18.82,1.72,1.72,0,0,1-.31,1,2.28,2.28,0,0,1-.82.75,2.49,2.49,0,0,1,.62.35,2.54,2.54,0,0,1,.44.49,2.3,2.3,0,0,1,.27.6,2.59,2.59,0,0,1,.09.68,2.33,2.33,0,0,1-.19,1,2.28,2.28,0,0,1-.55.75,2.63,2.63,0,0,1-.85.49,3.55,3.55,0,0,1-2.17,0,2.63,2.63,0,0,1-.85-.49,2.31,2.31,0,0,1-.56-.75A2.34,2.34,0,0,1,109.08,154.87Zm1.27-.11a2,2,0,0,0,.1.62,1.49,1.49,0,0,0,.29.47,1.29,1.29,0,0,0,.45.29,1.5,1.5,0,0,0,.58.1,1.56,1.56,0,0,0,.57-.11,1.09,1.09,0,0,0,.44-.29,1.35,1.35,0,0,0,.3-.47,1.66,1.66,0,0,0,.1-.61,1.61,1.61,0,0,0-.1-.58,1.47,1.47,0,0,0-.28-.47,1.28,1.28,0,0,0-.45-.32,1.5,1.5,0,0,0-1.15,0,1.25,1.25,0,0,0-.45.31,1.49,1.49,0,0,0-.29.47A1.64,1.64,0,0,0,110.35,154.76Zm.28-3.64a1.19,1.19,0,0,0,.09.47,1.23,1.23,0,0,0,.24.38,1,1,0,0,0,.36.25,1,1,0,0,0,.44.09,1,1,0,0,0,.44-.1,1.23,1.23,0,0,0,.36-.25,1.18,1.18,0,0,0,.24-.37,1.27,1.27,0,0,0,0-.94.93.93,0,0,0-.23-.37,1.23,1.23,0,0,0-.36-.25,1.13,1.13,0,0,0-.45-.09,1.14,1.14,0,0,0-.46.09,1,1,0,0,0-.36.26,1,1,0,0,0-.23.38A1.33,1.33,0,0,0,110.63,151.12Z"/><path class="cls-24" d="M117.83,157.25a2.25,2.25,0,0,1-2-1,5.26,5.26,0,0,1-.7-3,5.81,5.81,0,0,1,.73-3.23,2.41,2.41,0,0,1,2.12-1.1q2.66,0,2.66,4.13a5.45,5.45,0,0,1-.75,3.12A2.4,2.4,0,0,1,117.83,157.25ZM118,150c-1,0-1.46,1.08-1.46,3.23s.48,3,1.43,3,1.42-1,1.42-3.07S118.89,150,118,150Z"/><path class="cls-24" d="M257.55,224.9v-8.05h2.56a3.05,3.05,0,0,1,1.85.51,1.6,1.6,0,0,1,.68,1.33,1.87,1.87,0,0,1-.39,1.19,2.09,2.09,0,0,1-1.07.72v0a2.1,2.1,0,0,1,1.33.61,1.89,1.89,0,0,1,.49,1.35,2,2,0,0,1-.81,1.67,3.21,3.21,0,0,1-2.06.64Zm1.33-7v2.3h.87a1.67,1.67,0,0,0,1.09-.33,1.15,1.15,0,0,0,.39-.93c0-.69-.46-1-1.38-1Zm0,3.37v2.55H260a1.76,1.76,0,0,0,1.16-.35,1.18,1.18,0,0,0,.4-1c0-.83-.58-1.25-1.73-1.25Z"/><path class="cls-24" d="M268.48,224.9h-1.27V224h0a1.9,1.9,0,0,1-1.74,1,1.82,1.82,0,0,1-1.33-.46,1.61,1.61,0,0,1-.48-1.22c0-1.09.62-1.72,1.87-1.9l1.71-.24q0-1.23-1.17-1.23a2.79,2.79,0,0,0-1.85.71v-1.14a4,4,0,0,1,2.1-.54,1.91,1.91,0,0,1,2.18,2.15Zm-1.26-2.82-1.21.17a2,2,0,0,0-.84.27.9.9,0,0,0,0,1.3,1.05,1.05,0,0,0,.7.23,1.29,1.29,0,0,0,1-.42,1.48,1.48,0,0,0,.39-1Z"/><path class="cls-24" d="M273.89,224.64a3.15,3.15,0,0,1-1.63.4,2.8,2.8,0,0,1-2.07-.8,2.85,2.85,0,0,1-.78-2.08,3.14,3.14,0,0,1,.84-2.28,3.05,3.05,0,0,1,2.26-.86,3.35,3.35,0,0,1,1.39.27v1.22a2.1,2.1,0,0,0-1.28-.45,1.78,1.78,0,0,0-1.35.56,2,2,0,0,0-.53,1.46,1.92,1.92,0,0,0,.5,1.41,1.77,1.77,0,0,0,1.33.52,2.07,2.07,0,0,0,1.32-.5Z"/><path class="cls-24" d="M280.12,224.9h-1.66l-2.23-2.76h0v2.76H274.9v-8.51h1.31v5.4h0l2.11-2.64h1.57l-2.38,2.78Z"/><path class="cls-24" d="M283,222.24h-3.07v-1H283Z"/><path class="cls-24" d="M289.14,222.38h-3.92a1.62,1.62,0,0,0,.49,1.23A1.81,1.81,0,0,0,287,224a2.9,2.9,0,0,0,1.69-.54v1a3.79,3.79,0,0,1-2.08.5,2.57,2.57,0,0,1-2-.78,3.16,3.16,0,0,1-.72-2.21,3,3,0,0,1,.79-2.18,2.59,2.59,0,0,1,2-.85,2.25,2.25,0,0,1,1.82.76,3.14,3.14,0,0,1,.65,2.1Zm-1.26-.92a1.69,1.69,0,0,0-.33-1.09,1.12,1.12,0,0,0-.9-.39,1.26,1.26,0,0,0-.95.41,1.86,1.86,0,0,0-.48,1.07Z"/><path class="cls-24" d="M295.21,224.9h-1.3v-3.24c0-1.07-.38-1.61-1.14-1.61a1.22,1.22,0,0,0-1,.45,1.65,1.65,0,0,0-.39,1.13v3.27h-1.31v-5.75h1.31v1h0a2,2,0,0,1,1.87-1.09,1.73,1.73,0,0,1,1.43.61,2.73,2.73,0,0,1,.49,1.76Z"/><path class="cls-24" d="M301.74,224.9h-1.3v-1h0a2.26,2.26,0,0,1-3.64.34,3.2,3.2,0,0,1-.64-2.11,3.47,3.47,0,0,1,.71-2.28,2.31,2.31,0,0,1,1.88-.86,1.81,1.81,0,0,1,1.69.93h0v-3.56h1.3Zm-1.28-2.62v-.76a1.48,1.48,0,0,0-.4-1,1.33,1.33,0,0,0-1-.43,1.37,1.37,0,0,0-1.15.54,2.44,2.44,0,0,0-.42,1.51,2.23,2.23,0,0,0,.4,1.39A1.32,1.32,0,0,0,299,224a1.36,1.36,0,0,0,1.08-.5A1.82,1.82,0,0,0,300.46,222.28Z"/><path class="cls-24" d="M303.69,220.59a.81.81,0,0,1-.57-.23.68.68,0,0,1-.24-.53.71.71,0,0,1,.24-.54.85.85,0,0,1,.57-.22.83.83,0,0,1,.58.22.71.71,0,0,1,.24.54.68.68,0,0,1-.24.53A.8.8,0,0,1,303.69,220.59Zm0,4.44a.85.85,0,0,1-.57-.22.72.72,0,0,1,0-1.07.81.81,0,0,1,.57-.23.8.8,0,0,1,.58.23.72.72,0,0,1,0,1.07A.83.83,0,0,1,303.69,225Z"/><path class="cls-24" d="M310,222v2.92h-1.33v-8.05h2.44a3.21,3.21,0,0,1,2.15.65,2.26,2.26,0,0,1,.77,1.82,2.53,2.53,0,0,1-.8,1.92,3,3,0,0,1-2.16.74Zm0-4v3h.87a2,2,0,0,0,1.31-.4,1.46,1.46,0,0,0,.44-1.13c0-.94-.55-1.42-1.65-1.42Z"/><path class="cls-24" d="M320,224.9h-1.3V224h0a1.89,1.89,0,0,1-1.76,1c-1.36,0-2-.82-2-2.45v-3.44h1.3v3.31c0,1,.4,1.55,1.19,1.55a1.24,1.24,0,0,0,1-.43,1.65,1.65,0,0,0,.37-1.12v-3.31H320Z"/><path class="cls-24" d="M326.24,222.38h-3.92a1.62,1.62,0,0,0,.49,1.23,1.81,1.81,0,0,0,1.29.43,2.88,2.88,0,0,0,1.69-.54v1a3.77,3.77,0,0,1-2.08.5,2.58,2.58,0,0,1-2-.78,3.16,3.16,0,0,1-.72-2.21,3.09,3.09,0,0,1,.79-2.18,2.6,2.6,0,0,1,2-.85,2.25,2.25,0,0,1,1.82.76,3.14,3.14,0,0,1,.65,2.1Zm-1.26-.92a1.63,1.63,0,0,0-.33-1.09,1.12,1.12,0,0,0-.9-.39,1.28,1.28,0,0,0-.95.41,1.86,1.86,0,0,0-.48,1.07Z"/><path class="cls-24" d="M330.53,220.4a1,1,0,0,0-.68-.19,1.16,1.16,0,0,0-1,.52,2.39,2.39,0,0,0-.38,1.42v2.75h-1.31v-5.75h1.31v1.19h0a2,2,0,0,1,.59-1,1.33,1.33,0,0,1,.88-.34,1.09,1.09,0,0,1,.54.11Z"/><path class="cls-24" d="M334.53,224.84a2.25,2.25,0,0,1-1,.19c-1.12,0-1.67-.53-1.67-1.6v-3.25h-1v-1h1v-1.33l1.3-.37v1.7h1.38v1h-1.38v2.87a1.15,1.15,0,0,0,.18.73.77.77,0,0,0,.62.22.92.92,0,0,0,.58-.19Z"/><path class="cls-24" d="M337.84,225a2.84,2.84,0,0,1-2.12-.81,2.9,2.9,0,0,1-.8-2.13A2.84,2.84,0,0,1,338,219a2.74,2.74,0,0,1,2.1.79,3.08,3.08,0,0,1,.76,2.2,3,3,0,0,1-.82,2.2A2.91,2.91,0,0,1,337.84,225Zm.07-5a1.5,1.5,0,0,0-1.21.53,2.23,2.23,0,0,0-.45,1.47,2.11,2.11,0,0,0,.45,1.43,1.54,1.54,0,0,0,1.21.52,1.44,1.44,0,0,0,1.18-.51,2.8,2.8,0,0,0,0-2.92A1.42,1.42,0,0,0,337.91,220.06Z"/><path class="cls-24" d="M344.41,222.66a2.59,2.59,0,0,1,.09-.68,2.27,2.27,0,0,1,.26-.6,2.25,2.25,0,0,1,.44-.49,2,2,0,0,1,.61-.35,2.61,2.61,0,0,1-.83-.75,1.85,1.85,0,0,1-.31-1,1.9,1.9,0,0,1,.19-.82,2.1,2.1,0,0,1,.5-.65,2.46,2.46,0,0,1,.76-.43,3,3,0,0,1,1-.15,2.69,2.69,0,0,1,1,.16,2.18,2.18,0,0,1,.76.43,1.89,1.89,0,0,1,.51.65,1.87,1.87,0,0,1-.13,1.83,2.58,2.58,0,0,1-.82.75,2.16,2.16,0,0,1,.61.35,1.91,1.91,0,0,1,.45.49,2,2,0,0,1,.27.6,2.54,2.54,0,0,1,.09.68,2.32,2.32,0,0,1-.2,1,2,2,0,0,1-.55.75,2.53,2.53,0,0,1-.85.49,3.55,3.55,0,0,1-2.17,0,2.58,2.58,0,0,1-.84-.49,2,2,0,0,1-.56-.75A2.32,2.32,0,0,1,344.41,222.66Zm1.27-.11a1.7,1.7,0,0,0,.1.61,1.25,1.25,0,0,0,.29.47,1.21,1.21,0,0,0,.44.29,1.57,1.57,0,0,0,.58.1,1.48,1.48,0,0,0,.57-.1,1.37,1.37,0,0,0,.45-.3,1.44,1.44,0,0,0,.29-.46,1.74,1.74,0,0,0,.11-.61,1.66,1.66,0,0,0-.1-.59,1.37,1.37,0,0,0-1.32-.91,1.47,1.47,0,0,0-.56.11,1.57,1.57,0,0,0-.45.31,1.43,1.43,0,0,0-.29.48A1.46,1.46,0,0,0,345.68,222.55Zm.28-3.64a1.22,1.22,0,0,0,.08.47,1.05,1.05,0,0,0,.25.37,1.07,1.07,0,0,0,.35.25,1.12,1.12,0,0,0,.44.09,1,1,0,0,0,.44-.09,1.16,1.16,0,0,0,.36-.25,1.19,1.19,0,0,0,.25-.38,1.18,1.18,0,0,0,.09-.46,1.19,1.19,0,0,0-.09-.47,1.12,1.12,0,0,0-.24-.38,1.16,1.16,0,0,0-.36-.25,1.13,1.13,0,0,0-.45-.09,1,1,0,0,0-.46.1,1,1,0,0,0-.35.25,1.14,1.14,0,0,0-.23.38A1.17,1.17,0,0,0,346,218.91Z"/><path class="cls-24" d="M353.1,225a2.23,2.23,0,0,1-2-1,5.21,5.21,0,0,1-.71-3,5.82,5.82,0,0,1,.74-3.23,2.4,2.4,0,0,1,2.12-1.09q2.65,0,2.66,4.12a5.4,5.4,0,0,1-.75,3.12A2.41,2.41,0,0,1,353.1,225Zm.13-7.28c-1,0-1.46,1.07-1.46,3.23,0,2,.48,3,1.43,3s1.42-1,1.42-3.08S354.16,217.76,353.23,217.76Z"/></g></svg>